<?xml version="1.0" encoding="UTF-8"?><!DOCTYPE svg PUBLIC "-//W3C//DTD SVG 1.0//EN" "http://www.w3.org/TR/2001/REC-SVG-20010904/DTD/svg10.dtd" []><svg xmlns="http://www.w3.org/2000/svg" xmlns:xlink="http://www.w3.org/1999/xlink" height="1080" viewBox="0 0 1920 1080" width="1920"><g><path d="M1749.5 269.6L1693.4 547.5 1727 547.5 1764.8 362.1 1804.3 547.5 1837.9 547.5 1779.8 269.6z" fill="#fff"/><path clip-rule="evenodd" d="M1485.3 269.6L1536.3 547.5 1579.2 547.5 1629.2 269.6 1595.8 269.6 1557.7 475.7 1518.6 269.6z" fill="#fff" fill-rule="evenodd"/><path clip-rule="evenodd" d="M1359.2 269.6H1391.9V547.5H1359.2z" fill="#fff" fill-rule="evenodd"/><path clip-rule="evenodd" d="M1219.1 302.3L1262.7 302.3 1262.7 269.6 1142.3 269.6 1142.3 302.3 1186.5 302.3 1186.5 547.5 1219.1 547.5z" fill="#fff" fill-rule="evenodd"/><path clip-rule="evenodd" d="M670.6 269.6L721.6 547.5 764.5 547.5 814.5 269.6 781.1 269.6 743 475.7 703.9 269.6z" fill="#fff" fill-rule="evenodd"/><path clip-rule="evenodd" d="M512.8,515.5c-18.7,0-35.7-10.2-35.7-24.2l0-175.1c0-13.9,17-24.2,35.7-24.2c19.1,0,35.7,10.2,35.7,24.2 l0,175.1C548.6,505.3,531.9,515.5,512.8,515.5 M581.2,316.2c0-32-32-56.1-68.4-56.1c-35.7,0-68.4,24.2-68.4,56.1l0,175.1 c0,32,32.7,56.1,68.4,56.1c36.4,0,68.4-24.2,68.4-56.1L581.2,316.2z" fill="#fff" fill-rule="evenodd"/><path clip-rule="evenodd" d="M249.3 364.5L314.3 547.5 344.6 547.5 344.6 269.6 311.9 269.6 311.9 447.2 252 269.6 216.7 269.6 216.7 547.5 249.3 547.5z" fill="#fff" fill-rule="evenodd"/><path clip-rule="evenodd" d="M82.1 269.6H114.8V547.5H82.1z" fill="#fff" fill-rule="evenodd"/><path clip-rule="evenodd" d="M978.2 270.3L922.6 547.5 889.7 547.5 957.7 208.8 998.1 208.8 1069 547.5 1035.8 547.5z" fill="#fcbd0c" fill-rule="evenodd"/><g fill="#fff"><path d="M586.4,619.8h75.7c14.6,0,25.9,3.8,33.9,11.3c8,7.5,12,18.5,12,33c0,8.2-1.9,15.4-5.8,21.6 c-3.9,6.2-8.9,10.8-15.2,13.8c17.6,5.2,26.4,18,26.4,38.4c0,9.6-2.1,17.9-6.2,24.9c-4.2,7-9.9,12.4-17.1,16.1 c-7.2,3.8-15.2,5.7-24,5.7h-79.7V619.8z M659,690.5c7.7,0,13.7-2.1,18.1-6.4c4.4-4.2,6.6-10.5,6.6-18.9c0-9.6-2.2-16.3-6.5-20.2 c-4.3-3.8-11-5.8-19.9-5.8h-46.9v51.1H659z M660.7,764.9c9.3,0,16.3-2,21.2-6.1c4.9-4.1,7.3-11.1,7.3-21c0-9.9-2.6-17-7.7-21.2 c-5.1-4.2-12.8-6.4-23-6.4h-48.1v54.7H660.7z"/><path d="M739.4,619.8h66.2c17.6,0,31.1,4.2,40.5,12.7c9.4,8.5,14.1,20.9,14.1,37.2c0,12.1-3.2,22.4-9.7,30.8 c-6.4,8.4-15.6,14.1-27.3,17.1l36.3,66.9h-25l-35.1-65.1h-36.1v65.1h-24V619.8z M801.6,699.2c10.5,0,18.9-2.5,25.1-7.4 c6.2-4.9,9.3-12.3,9.3-22c0-10.7-3-18.3-9.1-22.9c-6.1-4.6-14.5-6.8-25.3-6.8h-38.2v59.2H801.6z"/><path d="M936.9,619.8H960l65.8,164.7h-24.5l-16.5-41h-72.8l-16,41h-24.7L936.9,619.8z M978.2,723.5l-29.7-77.1 l-29.7,77.1H978.2z"/><path d="M1066.2,785.6c-9.2-1.6-16.7-3.9-22.5-6.7v-21.7c15.1,7.1,31.3,10.6,48.8,10.6c24.5,0,36.8-8.2,36.8-24.7 c0-5.7-1.3-10.2-4-13.7c-2.7-3.5-6.5-6.5-11.5-9.1c-5-2.6-13.2-6.2-24.5-10.7c-15.6-6.3-26.8-13.2-33.7-20.7 c-6.9-7.5-10.4-17-10.4-28.5c0-8.6,2.4-16.3,7.1-23c4.7-6.7,11.3-11.9,19.8-15.6c8.5-3.7,18.2-5.5,29.2-5.5c9,0,17,0.7,24.3,2.1 c7.2,1.4,14.3,3.7,21.2,6.8v20.7c-13.7-6.1-27.5-9.2-41.5-9.2c-11.3,0-20,2-25.9,6.1c-6,4.1-9,9.9-9,17.4c0,5.2,1.3,9.5,3.9,13.1 s6.4,6.7,11.5,9.4c5.1,2.8,12.7,6.2,22.7,10.3c11.2,4.6,20,8.9,26.4,13c6.4,4.1,11.3,9.1,14.7,15c3.4,5.9,5.1,13.2,5.1,22 c0,14.3-5.1,25.4-15.3,33.2c-10.2,7.9-25.3,11.8-45.3,11.8C1084.7,788,1075.4,787.2,1066.2,785.6z"/><path d="M1180.6,619.8h24.3v164.7h-24.3V619.8z"/><path d="M1235.5,619.8h24v144.7h83.4v20h-107.5V619.8z"/></g></g></svg>